STARTFONT 2.1
FONT -FontForge-Bm437 DOS/V TWN16-Normal-R-Normal--16-120-96-96-C-80-WinRoman-0
SIZE 12 96 96
FONTBOUNDINGBOX 8 16 0 -3
COMMENT "Generated by fontforge, http://fontforge.sourceforge.net"
COMMENT "FON conversion by VileR, 2020; license: CC BY-SA 4.0"
STARTPROPERTIES 34
FOUNDRY "FontForge"
FAMILY_NAME "Bm437 DOS/V TWN16"
WEIGHT_NAME "Normal"
SLANT "R"
SETWIDTH_NAME "Normal"
ADD_STYLE_NAME ""
PIXEL_SIZE 16
POINT_SIZE 120
RESOLUTION_X 96
RESOLUTION_Y 96
SPACING "C"
AVERAGE_WIDTH 80
CHARSET_REGISTRY "WinRoman"
CHARSET_ENCODING "0"
FONTNAME_REGISTRY ""
CHARSET_COLLECTIONS "WinRoman"
FONT_NAME "Bm437DOS/VTWN16"
FACE_NAME "Bm437 DOS/V TWN16"
COPYRIGHT "FON conversion by VileR, 2020; license: CC BY-SA 4.0"
FONT_VERSION "001.000"
FONT_ASCENT 13
FONT_DESCENT 3
UNDERLINE_POSITION -2
UNDERLINE_THICKNESS 1
X_HEIGHT 6
CAP_HEIGHT 9
RAW_ASCENT 800
RAW_DESCENT 200
NORM_SPACE 8
RELATIVE_WEIGHT 40
RELATIVE_SETWIDTH 50
FIGURE_WIDTH 8
AVG_LOWERCASE_WIDTH 80
AVG_UPPERCASE_WIDTH 80
ENDPROPERTIES
CHARS 256
STARTCHAR uni0000
ENCODING 0
SWIDTH 500 0
DWIDTH 8 0
BBX 1 1 7 -3
BITMAP
00
ENDCHAR
STARTCHAR uni0001
ENCODING 1
SWIDTH 500 0
DWIDTH 8 0
BBX 7 11 1 0
BITMAP
38
44
82
AA
82
82
C6
BA
82
44
38
ENDCHAR
STARTCHAR uni0002
ENCODING 2
SWIDTH 500 0
DWIDTH 8 0
BBX 7 11 1 0
BITMAP
38
7C
FE
D6
FE
FE
BA
C6
FE
7C
38
ENDCHAR
STARTCHAR uni0003
ENCODING 3
SWIDTH 500 0
DWIDTH 8 0
BBX 7 8 1 1
BITMAP
44
EE
FE
FE
FE
7C
38
10
ENDCHAR
STARTCHAR uni0004
ENCODING 4
SWIDTH 500 0
DWIDTH 8 0
BBX 7 8 1 1
BITMAP
10
38
7C
FE
FE
7C
38
10
ENDCHAR
STARTCHAR uni0005
ENCODING 5
SWIDTH 500 0
DWIDTH 8 0
BBX 7 8 1 1
BITMAP
38
38
38
D6
FE
EE
10
7C
ENDCHAR
STARTCHAR uni0006
ENCODING 6
SWIDTH 500 0
DWIDTH 8 0
BBX 7 8 1 1
BITMAP
10
38
7C
FE
FE
D6
10
7C
ENDCHAR
STARTCHAR uni0007
ENCODING 7
SWIDTH 500 0
DWIDTH 8 0
BBX 4 4 2 3
BITMAP
60
F0
F0
60
ENDCHAR
STARTCHAR uni0008
ENCODING 8
SWIDTH 500 0
DWIDTH 8 0
BBX 8 16 0 -3
BITMAP
FF
FF
FF
FF
FF
FF
E7
C3
C3
E7
FF
FF
FF
FF
FF
FF
ENDCHAR
STARTCHAR uni0009
ENCODING 9
SWIDTH 500 0
DWIDTH 8 0
BBX 6 6 1 2
BITMAP
30
48
84
84
48
30
ENDCHAR
STARTCHAR uni000A
ENCODING 10
SWIDTH 500 0
DWIDTH 8 0
BBX 8 16 0 -3
BITMAP
FF
FF
FF
FF
FF
E7
DB
BD
BD
DB
E7
FF
FF
FF
FF
FF
ENDCHAR
STARTCHAR uni000B
ENCODING 11
SWIDTH 500 0
DWIDTH 8 0
BBX 7 11 1 0
BITMAP
02
1E
06
0E
7A
CC
CC
CC
CC
CC
78
ENDCHAR
STARTCHAR uni000C
ENCODING 12
SWIDTH 500 0
DWIDTH 8 0
BBX 6 10 1 1
BITMAP
78
CC
CC
CC
78
30
30
FC
30
30
ENDCHAR
STARTCHAR uni000D
ENCODING 13
SWIDTH 500 0
DWIDTH 8 0
BBX 6 11 2 0
BITMAP
20
30
38
2C
20
20
20
60
E0
E0
C0
ENDCHAR
STARTCHAR uni000E
ENCODING 14
SWIDTH 500 0
DWIDTH 8 0
BBX 7 12 1 -1
BITMAP
30
3E
2E
22
22
22
22
62
E6
EE
CE
0C
ENDCHAR
STARTCHAR uni000F
ENCODING 15
SWIDTH 500 0
DWIDTH 8 0
BBX 7 9 1 1
BITMAP
10
92
7C
44
C6
44
7C
92
10
ENDCHAR
STARTCHAR uni0010
ENCODING 16
SWIDTH 500 0
DWIDTH 8 0
BBX 5 7 2 2
BITMAP
C0
E0
F0
F8
F0
E0
C0
ENDCHAR
STARTCHAR uni0011
ENCODING 17
SWIDTH 500 0
DWIDTH 8 0
BBX 5 7 1 2
BITMAP
18
38
78
F8
78
38
18
ENDCHAR
STARTCHAR uni0012
ENCODING 18
SWIDTH 500 0
DWIDTH 8 0
BBX 5 10 2 1
BITMAP
20
70
F8
20
20
20
20
F8
70
20
ENDCHAR
STARTCHAR uni0013
ENCODING 19
SWIDTH 500 0
DWIDTH 8 0
BBX 6 11 1 0
BITMAP
CC
CC
CC
CC
CC
CC
CC
CC
00
CC
CC
ENDCHAR
STARTCHAR uni0014
ENCODING 20
SWIDTH 500 0
DWIDTH 8 0
BBX 7 10 1 1
BITMAP
7E
F2
F2
F2
72
12
12
12
12
12
ENDCHAR
STARTCHAR uni0015
ENCODING 21
SWIDTH 500 0
DWIDTH 8 0
BBX 7 12 1 -1
BITMAP
7C
C6
60
38
6C
C6
C6
6C
38
0C
C6
7C
ENDCHAR
STARTCHAR uni0016
ENCODING 22
SWIDTH 500 0
DWIDTH 8 0
BBX 7 4 1 4
BITMAP
FE
FE
FE
FE
ENDCHAR
STARTCHAR uni0017
ENCODING 23
SWIDTH 500 0
DWIDTH 8 0
BBX 5 11 2 0
BITMAP
20
70
F8
20
20
20
20
F8
70
20
F8
ENDCHAR
STARTCHAR uni0018
ENCODING 24
SWIDTH 500 0
DWIDTH 8 0
BBX 5 10 2 1
BITMAP
20
70
F8
20
20
20
20
20
20
20
ENDCHAR
STARTCHAR uni0019
ENCODING 25
SWIDTH 500 0
DWIDTH 8 0
BBX 5 10 2 1
BITMAP
20
20
20
20
20
20
20
F8
70
20
ENDCHAR
STARTCHAR uni001A
ENCODING 26
SWIDTH 500 0
DWIDTH 8 0
BBX 7 5 1 4
BITMAP
08
0C
FE
0C
08
ENDCHAR
STARTCHAR uni001B
ENCODING 27
SWIDTH 500 0
DWIDTH 8 0
BBX 7 5 1 4
BITMAP
20
60
FE
60
20
ENDCHAR
STARTCHAR uni001C
ENCODING 28
SWIDTH 500 0
DWIDTH 8 0
BBX 7 5 1 3
BITMAP
C0
C0
C0
C0
FE
ENDCHAR
STARTCHAR uni001D
ENCODING 29
SWIDTH 500 0
DWIDTH 8 0
BBX 8 5 0 4
BITMAP
24
66
FF
66
24
ENDCHAR
STARTCHAR uni001E
ENCODING 30
SWIDTH 500 0
DWIDTH 8 0
BBX 7 5 1 3
BITMAP
10
38
7C
FE
FE
ENDCHAR
STARTCHAR uni001F
ENCODING 31
SWIDTH 500 0
DWIDTH 8 0
BBX 7 5 1 3
BITMAP
FE
FE
7C
38
10
ENDCHAR
STARTCHAR space
ENCODING 32
SWIDTH 500 0
DWIDTH 8 0
BBX 1 1 7 -3
BITMAP
00
ENDCHAR
STARTCHAR exclam
ENCODING 33
SWIDTH 500 0
DWIDTH 8 0
BBX 2 11 3 0
BITMAP
C0
C0
C0
C0
C0
C0
C0
C0
00
C0
C0
ENDCHAR
STARTCHAR quotedbl
ENCODING 34
SWIDTH 500 0
DWIDTH 8 0
BBX 6 4 1 7
BITMAP
CC
CC
CC
CC
ENDCHAR
STARTCHAR numbersign
ENCODING 35
SWIDTH 500 0
DWIDTH 8 0
BBX 7 9 1 1
BITMAP
6C
6C
FE
6C
6C
6C
FE
6C
6C
ENDCHAR
STARTCHAR dollar
ENCODING 36
SWIDTH 500 0
DWIDTH 8 0
BBX 7 13 1 -2
BITMAP
10
10
7C
D6
D0
C0
7C
06
16
D6
7C
10
10
ENDCHAR
STARTCHAR percent
ENCODING 37
SWIDTH 500 0
DWIDTH 8 0
BBX 7 10 1 1
BITMAP
60
F2
66
0C
18
30
60
CC
9E
0C
ENDCHAR
STARTCHAR ampersand
ENCODING 38
SWIDTH 500 0
DWIDTH 8 0
BBX 7 10 1 1
BITMAP
38
6C
6C
38
70
D6
CC
CC
CC
76
ENDCHAR
STARTCHAR quotesingle
ENCODING 39
SWIDTH 500 0
DWIDTH 8 0
BBX 2 4 3 8
BITMAP
C0
C0
C0
C0
ENDCHAR
STARTCHAR parenleft
ENCODING 40
SWIDTH 500 0
DWIDTH 8 0
BBX 4 12 3 -1
BITMAP
30
60
60
C0
C0
C0
C0
C0
C0
60
60
30
ENDCHAR
STARTCHAR parenright
ENCODING 41
SWIDTH 500 0
DWIDTH 8 0
BBX 4 12 2 -1
BITMAP
C0
60
60
30
30
30
30
30
30
60
60
C0
ENDCHAR
STARTCHAR asterisk
ENCODING 42
SWIDTH 500 0
DWIDTH 8 0
BBX 7 7 1 2
BITMAP
10
54
38
FE
38
54
10
ENDCHAR
STARTCHAR plus
ENCODING 43
SWIDTH 500 0
DWIDTH 8 0
BBX 6 5 1 3
BITMAP
30
30
FC
30
30
ENDCHAR
STARTCHAR comma
ENCODING 44
SWIDTH 500 0
DWIDTH 8 0
BBX 2 4 3 -1
BITMAP
C0
C0
40
80
ENDCHAR
STARTCHAR hyphen
ENCODING 45
SWIDTH 500 0
DWIDTH 8 0
BBX 6 1 1 5
BITMAP
FC
ENDCHAR
STARTCHAR period
ENCODING 46
SWIDTH 500 0
DWIDTH 8 0
BBX 2 2 3 1
BITMAP
C0
C0
ENDCHAR
STARTCHAR slash
ENCODING 47
SWIDTH 500 0
DWIDTH 8 0
BBX 6 10 1 1
BITMAP
0C
0C
18
18
30
30
60
60
C0
C0
ENDCHAR
STARTCHAR zero
ENCODING 48
SWIDTH 500 0
DWIDTH 8 0
BBX 7 10 1 0
BITMAP
7C
C6
C6
C6
D6
C6
C6
C6
C6
7C
ENDCHAR
STARTCHAR one
ENCODING 49
SWIDTH 500 0
DWIDTH 8 0
BBX 4 10 2 0
BITMAP
30
F0
30
30
30
30
30
30
30
30
ENDCHAR
STARTCHAR two
ENCODING 50
SWIDTH 500 0
DWIDTH 8 0
BBX 6 10 1 0
BITMAP
78
CC
CC
0C
18
30
60
C0
C0
FC
ENDCHAR
STARTCHAR three
ENCODING 51
SWIDTH 500 0
DWIDTH 8 0
BBX 6 10 1 0
BITMAP
78
CC
0C
0C
38
0C
0C
8C
CC
78
ENDCHAR
STARTCHAR four
ENCODING 52
SWIDTH 500 0
DWIDTH 8 0
BBX 7 10 1 0
BITMAP
1C
3C
2C
6C
4C
CC
8C
FE
0C
0C
ENDCHAR
STARTCHAR five
ENCODING 53
SWIDTH 500 0
DWIDTH 8 0
BBX 6 10 1 0
BITMAP
FC
C0
C0
F8
CC
0C
0C
8C
CC
78
ENDCHAR
STARTCHAR six
ENCODING 54
SWIDTH 500 0
DWIDTH 8 0
BBX 6 10 1 0
BITMAP
38
60
C0
C0
F8
CC
CC
CC
CC
78
ENDCHAR
STARTCHAR seven
ENCODING 55
SWIDTH 500 0
DWIDTH 8 0
BBX 6 10 1 0
BITMAP
FC
0C
0C
18
18
18
30
30
30
30
ENDCHAR
STARTCHAR eight
ENCODING 56
SWIDTH 500 0
DWIDTH 8 0
BBX 6 10 1 0
BITMAP
78
CC
CC
48
78
CC
CC
CC
CC
78
ENDCHAR
STARTCHAR nine
ENCODING 57
SWIDTH 500 0
DWIDTH 8 0
BBX 6 10 1 0
BITMAP
78
CC
CC
CC
CC
7C
0C
0C
18
70
ENDCHAR
STARTCHAR colon
ENCODING 58
SWIDTH 500 0
DWIDTH 8 0
BBX 2 7 3 1
BITMAP
C0
C0
00
00
00
C0
C0
ENDCHAR
STARTCHAR semicolon
ENCODING 59
SWIDTH 500 0
DWIDTH 8 0
BBX 2 9 3 -1
BITMAP
C0
C0
00
00
00
C0
C0
40
80
ENDCHAR
STARTCHAR less
ENCODING 60
SWIDTH 500 0
DWIDTH 8 0
BBX 6 9 1 1
BITMAP
0C
18
30
60
C0
60
30
18
0C
ENDCHAR
STARTCHAR equal
ENCODING 61
SWIDTH 500 0
DWIDTH 8 0
BBX 5 4 2 3
BITMAP
F8
00
00
F8
ENDCHAR
STARTCHAR greater
ENCODING 62
SWIDTH 500 0
DWIDTH 8 0
BBX 6 9 2 1
BITMAP
C0
60
30
18
0C
18
30
60
C0
ENDCHAR
STARTCHAR question
ENCODING 63
SWIDTH 500 0
DWIDTH 8 0
BBX 7 11 1 -1
BITMAP
7C
C6
C6
06
0C
18
30
30
00
30
30
ENDCHAR
STARTCHAR at
ENCODING 64
SWIDTH 500 0
DWIDTH 8 0
BBX 7 11 1 -1
BITMAP
3C
66
C6
DE
DA
D6
D6
DE
C0
66
3C
ENDCHAR
STARTCHAR A
ENCODING 65
SWIDTH 500 0
DWIDTH 8 0
BBX 7 10 1 0
BITMAP
38
6C
C6
C6
C6
FE
C6
C6
C6
C6
ENDCHAR
STARTCHAR B
ENCODING 66
SWIDTH 500 0
DWIDTH 8 0
BBX 7 10 1 0
BITMAP
FC
C6
C6
C6
FC
C6
C6
C6
C6
FC
ENDCHAR
STARTCHAR C
ENCODING 67
SWIDTH 500 0
DWIDTH 8 0
BBX 7 10 1 0
BITMAP
7C
C6
C6
C0
C0
C0
C0
C6
C6
7C
ENDCHAR
STARTCHAR D
ENCODING 68
SWIDTH 500 0
DWIDTH 8 0
BBX 7 10 1 0
BITMAP
F8
CC
C6
C6
C6
C6
C6
C6
CC
F8
ENDCHAR
STARTCHAR E
ENCODING 69
SWIDTH 500 0
DWIDTH 8 0
BBX 7 10 1 0
BITMAP
FE
C0
C0
C0
FC
C0
C0
C0
C0
FE
ENDCHAR
STARTCHAR F
ENCODING 70
SWIDTH 500 0
DWIDTH 8 0
BBX 7 10 1 0
BITMAP
FE
C0
C0
C0
FC
C0
C0
C0
C0
C0
ENDCHAR
STARTCHAR G
ENCODING 71
SWIDTH 500 0
DWIDTH 8 0
BBX 7 10 1 0
BITMAP
7C
C6
C6
C0
C0
CE
C6
C6
CE
76
ENDCHAR
STARTCHAR H
ENCODING 72
SWIDTH 500 0
DWIDTH 8 0
BBX 7 10 1 0
BITMAP
C6
C6
C6
C6
FE
C6
C6
C6
C6
C6
ENDCHAR
STARTCHAR I
ENCODING 73
SWIDTH 500 0
DWIDTH 8 0
BBX 4 10 2 0
BITMAP
F0
60
60
60
60
60
60
60
60
F0
ENDCHAR
STARTCHAR J
ENCODING 74
SWIDTH 500 0
DWIDTH 8 0
BBX 7 10 1 0
BITMAP
3E
0C
0C
0C
0C
0C
0C
CC
CC
78
ENDCHAR
STARTCHAR K
ENCODING 75
SWIDTH 500 0
DWIDTH 8 0
BBX 7 10 1 0
BITMAP
C6
C6
CC
D8
F0
F0
D8
CC
C6
C6
ENDCHAR
STARTCHAR L
ENCODING 76
SWIDTH 500 0
DWIDTH 8 0
BBX 7 10 1 0
BITMAP
C0
C0
C0
C0
C0
C0
C0
C0
C0
FE
ENDCHAR
STARTCHAR M
ENCODING 77
SWIDTH 500 0
DWIDTH 8 0
BBX 7 10 1 0
BITMAP
82
C6
EE
FE
D6
D6
C6
C6
C6
C6
ENDCHAR
STARTCHAR N
ENCODING 78
SWIDTH 500 0
DWIDTH 8 0
BBX 7 10 1 0
BITMAP
86
C6
E6
F6
DE
CE
C6
C6
C6
C6
ENDCHAR
STARTCHAR O
ENCODING 79
SWIDTH 500 0
DWIDTH 8 0
BBX 7 10 1 0
BITMAP
7C
C6
C6
C6
C6
C6
C6
C6
C6
7C
ENDCHAR
STARTCHAR P
ENCODING 80
SWIDTH 500 0
DWIDTH 8 0
BBX 7 10 1 0
BITMAP
FC
C6
C6
C6
C6
FC
C0
C0
C0
C0
ENDCHAR
STARTCHAR Q
ENCODING 81
SWIDTH 500 0
DWIDTH 8 0
BBX 7 12 1 -2
BITMAP
7C
C6
C6
C6
C6
C6
C6
C6
C6
7C
18
0E
ENDCHAR
STARTCHAR R
ENCODING 82
SWIDTH 500 0
DWIDTH 8 0
BBX 7 10 1 0
BITMAP
FC
C6
C6
C6
C6
FC
D8
CC
C6
C6
ENDCHAR
STARTCHAR S
ENCODING 83
SWIDTH 500 0
DWIDTH 8 0
BBX 7 10 1 0
BITMAP
7C
C6
C6
E0
70
1C
0E
C6
C6
7C
ENDCHAR
STARTCHAR T
ENCODING 84
SWIDTH 500 0
DWIDTH 8 0
BBX 6 10 1 0
BITMAP
FC
30
30
30
30
30
30
30
30
30
ENDCHAR
STARTCHAR U
ENCODING 85
SWIDTH 500 0
DWIDTH 8 0
BBX 7 10 1 0
BITMAP
C6
C6
C6
C6
C6
C6
C6
C6
C6
7C
ENDCHAR
STARTCHAR V
ENCODING 86
SWIDTH 500 0
DWIDTH 8 0
BBX 7 10 1 0
BITMAP
C6
C6
C6
C6
C6
C6
6C
6C
38
38
ENDCHAR
STARTCHAR W
ENCODING 87
SWIDTH 500 0
DWIDTH 8 0
BBX 7 10 1 0
BITMAP
C6
C6
C6
C6
C6
D6
D6
D6
6C
6C
ENDCHAR
STARTCHAR X
ENCODING 88
SWIDTH 500 0
DWIDTH 8 0
BBX 7 10 1 0
BITMAP
C6
C6
C6
6C
38
38
6C
C6
C6
C6
ENDCHAR
STARTCHAR Y
ENCODING 89
SWIDTH 500 0
DWIDTH 8 0
BBX 6 10 1 0
BITMAP
CC
CC
CC
CC
78
30
30
30
30
30
ENDCHAR
STARTCHAR Z
ENCODING 90
SWIDTH 500 0
DWIDTH 8 0
BBX 7 10 1 0
BITMAP
FE
0C
0C
18
18
30
30
60
60
FE
ENDCHAR
STARTCHAR bracketleft
ENCODING 91
SWIDTH 500 0
DWIDTH 8 0
BBX 4 12 3 -1
BITMAP
F0
C0
C0
C0
C0
C0
C0
C0
C0
C0
C0
F0
ENDCHAR
STARTCHAR backslash
ENCODING 92
SWIDTH 500 0
DWIDTH 8 0
BBX 6 10 1 0
BITMAP
C0
C0
60
60
30
30
18
18
0C
0C
ENDCHAR
STARTCHAR bracketright
ENCODING 93
SWIDTH 500 0
DWIDTH 8 0
BBX 4 12 2 -1
BITMAP
F0
30
30
30
30
30
30
30
30
30
30
F0
ENDCHAR
STARTCHAR asciicircum
ENCODING 94
SWIDTH 500 0
DWIDTH 8 0
BBX 7 4 1 7
BITMAP
10
38
6C
C6
ENDCHAR
STARTCHAR underscore
ENCODING 95
SWIDTH 500 0
DWIDTH 8 0
BBX 8 1 0 -2
BITMAP
FF
ENDCHAR
STARTCHAR grave
ENCODING 96
SWIDTH 500 0
DWIDTH 8 0
BBX 4 3 2 8
BITMAP
C0
60
30
ENDCHAR
STARTCHAR a
ENCODING 97
SWIDTH 500 0
DWIDTH 8 0
BBX 7 7 1 0
BITMAP
7C
06
06
7E
C6
C6
7E
ENDCHAR
STARTCHAR b
ENCODING 98
SWIDTH 500 0
DWIDTH 8 0
BBX 7 10 1 0
BITMAP
C0
C0
C0
DC
E6
C6
C6
C6
C6
FC
ENDCHAR
STARTCHAR c
ENCODING 99
SWIDTH 500 0
DWIDTH 8 0
BBX 7 7 1 0
BITMAP
7C
C6
C0
C0
C0
C6
7C
ENDCHAR
STARTCHAR d
ENCODING 100
SWIDTH 500 0
DWIDTH 8 0
BBX 7 10 1 0
BITMAP
06
06
06
76
CE
C6
C6
C6
C6
7E
ENDCHAR
STARTCHAR e
ENCODING 101
SWIDTH 500 0
DWIDTH 8 0
BBX 7 7 1 0
BITMAP
7C
C6
C6
FE
C0
C0
7C
ENDCHAR
STARTCHAR f
ENCODING 102
SWIDTH 500 0
DWIDTH 8 0
BBX 7 10 1 0
BITMAP
1E
30
30
FC
30
30
30
30
30
30
ENDCHAR
STARTCHAR g
ENCODING 103
SWIDTH 500 0
DWIDTH 8 0
BBX 7 9 1 -2
BITMAP
7E
C6
C6
C6
CE
76
06
06
7C
ENDCHAR
STARTCHAR h
ENCODING 104
SWIDTH 500 0
DWIDTH 8 0
BBX 7 10 1 0
BITMAP
C0
C0
C0
DC
E6
C6
C6
C6
C6
C6
ENDCHAR
STARTCHAR i
ENCODING 105
SWIDTH 500 0
DWIDTH 8 0
BBX 6 10 2 0
BITMAP
30
30
00
F0
30
30
30
30
30
FC
ENDCHAR
STARTCHAR j
ENCODING 106
SWIDTH 500 0
DWIDTH 8 0
BBX 5 13 1 -2
BITMAP
18
18
00
78
18
18
18
18
18
18
18
18
F0
ENDCHAR
STARTCHAR k
ENCODING 107
SWIDTH 500 0
DWIDTH 8 0
BBX 7 10 1 0
BITMAP
C0
C0
C0
CC
D8
F0
F0
D8
CC
C6
ENDCHAR
STARTCHAR l
ENCODING 108
SWIDTH 500 0
DWIDTH 8 0
BBX 5 10 2 0
BITMAP
E0
60
60
60
60
60
60
60
60
38
ENDCHAR
STARTCHAR m
ENCODING 109
SWIDTH 500 0
DWIDTH 8 0
BBX 7 7 1 0
BITMAP
EC
FE
D6
D6
D6
C6
C6
ENDCHAR
STARTCHAR n
ENCODING 110
SWIDTH 500 0
DWIDTH 8 0
BBX 7 7 1 0
BITMAP
DC
E6
C6
C6
C6
C6
C6
ENDCHAR
STARTCHAR o
ENCODING 111
SWIDTH 500 0
DWIDTH 8 0
BBX 7 7 1 0
BITMAP
7C
C6
C6
C6
C6
C6
7C
ENDCHAR
STARTCHAR p
ENCODING 112
SWIDTH 500 0
DWIDTH 8 0
BBX 7 9 1 -2
BITMAP
DC
E6
C6
C6
C6
FC
C0
C0
C0
ENDCHAR
STARTCHAR q
ENCODING 113
SWIDTH 500 0
DWIDTH 8 0
BBX 7 9 1 -2
BITMAP
7E
C6
C6
C6
CE
76
06
06
06
ENDCHAR
STARTCHAR r
ENCODING 114
SWIDTH 500 0
DWIDTH 8 0
BBX 6 7 2 0
BITMAP
D8
EC
C0
C0
C0
C0
C0
ENDCHAR
STARTCHAR s
ENCODING 115
SWIDTH 500 0
DWIDTH 8 0
BBX 7 7 1 0
BITMAP
7C
C6
C0
7C
06
C6
7C
ENDCHAR
STARTCHAR t
ENCODING 116
SWIDTH 500 0
DWIDTH 8 0
BBX 6 10 1 0
BITMAP
10
30
30
FC
30
30
30
30
30
1C
ENDCHAR
STARTCHAR u
ENCODING 117
SWIDTH 500 0
DWIDTH 8 0
BBX 7 7 1 0
BITMAP
C6
C6
C6
C6
C6
CE
76
ENDCHAR
STARTCHAR v
ENCODING 118
SWIDTH 500 0
DWIDTH 8 0
BBX 7 7 1 0
BITMAP
C6
C6
C6
6C
6C
38
38
ENDCHAR
STARTCHAR w
ENCODING 119
SWIDTH 500 0
DWIDTH 8 0
BBX 7 7 1 0
BITMAP
C6
C6
D6
D6
D6
7C
6C
ENDCHAR
STARTCHAR x
ENCODING 120
SWIDTH 500 0
DWIDTH 8 0
BBX 7 7 1 0
BITMAP
C6
C6
6C
38
6C
C6
C6
ENDCHAR
STARTCHAR y
ENCODING 121
SWIDTH 500 0
DWIDTH 8 0
BBX 7 9 1 -2
BITMAP
C6
C6
C6
C6
CE
76
06
06
7C
ENDCHAR
STARTCHAR z
ENCODING 122
SWIDTH 500 0
DWIDTH 8 0
BBX 7 7 1 0
BITMAP
FE
0C
18
30
60
C0
FE
ENDCHAR
STARTCHAR braceleft
ENCODING 123
SWIDTH 500 0
DWIDTH 8 0
BBX 6 13 1 -2
BITMAP
1C
30
30
30
30
30
E0
30
30
30
30
30
1C
ENDCHAR
STARTCHAR bar
ENCODING 124
SWIDTH 500 0
DWIDTH 8 0
BBX 2 14 3 -2
BITMAP
C0
C0
C0
C0
C0
C0
C0
C0
C0
C0
C0
C0
C0
C0
ENDCHAR
STARTCHAR braceright
ENCODING 125
SWIDTH 500 0
DWIDTH 8 0
BBX 6 13 2 -2
BITMAP
E0
30
30
30
30
30
1C
30
30
30
30
30
E0
ENDCHAR
STARTCHAR asciitilde
ENCODING 126
SWIDTH 500 0
DWIDTH 8 0
BBX 7 3 1 8
BITMAP
62
FE
8C
ENDCHAR
STARTCHAR uni007F
ENCODING 127
SWIDTH 500 0
DWIDTH 8 0
BBX 7 8 1 1
BITMAP
10
38
6C
C6
82
82
82
FE
ENDCHAR
STARTCHAR Euro
ENCODING 128
SWIDTH 500 0
DWIDTH 8 0
BBX 7 13 1 -2
BITMAP
7C
C6
C6
C0
C0
C0
C0
C6
C6
7C
18
0C
38
ENDCHAR
STARTCHAR NameMe.129
ENCODING 129
SWIDTH 500 0
DWIDTH 8 0
BBX 7 10 1 0
BITMAP
C6
C6
00
C6
C6
C6
C6
C6
CE
76
ENDCHAR
STARTCHAR quotesinglbase
ENCODING 130
SWIDTH 500 0
DWIDTH 8 0
BBX 7 11 1 0
BITMAP
0C
18
30
00
7C
C6
C6
FE
C0
C0
7C
ENDCHAR
STARTCHAR florin
ENCODING 131
SWIDTH 500 0
DWIDTH 8 0
BBX 7 11 1 0
BITMAP
10
38
6C
00
7C
06
06
7E
C6
C6
7E
ENDCHAR
STARTCHAR quotedblbase
ENCODING 132
SWIDTH 500 0
DWIDTH 8 0
BBX 7 10 1 0
BITMAP
66
66
00
7C
06
06
7E
C6
C6
7E
ENDCHAR
STARTCHAR ellipsis
ENCODING 133
SWIDTH 500 0
DWIDTH 8 0
BBX 7 11 1 0
BITMAP
60
30
18
00
7C
06
06
7E
C6
C6
7E
ENDCHAR
STARTCHAR dagger
ENCODING 134
SWIDTH 500 0
DWIDTH 8 0
BBX 7 11 1 0
BITMAP
38
6C
38
00
7C
06
06
7E
C6
C6
7E
ENDCHAR
STARTCHAR daggerdbl
ENCODING 135
SWIDTH 500 0
DWIDTH 8 0
BBX 7 10 1 -2
BITMAP
7C
C6
C0
C0
C0
C6
7C
18
0C
38
ENDCHAR
STARTCHAR circumflex
ENCODING 136
SWIDTH 500 0
DWIDTH 8 0
BBX 7 11 1 0
BITMAP
10
38
6C
00
7C
C6
C6
FE
C0
C0
7C
ENDCHAR
STARTCHAR perthousand
ENCODING 137
SWIDTH 500 0
DWIDTH 8 0
BBX 7 10 1 0
BITMAP
CC
CC
00
7C
C6
C6
FE
C0
C0
7C
ENDCHAR
STARTCHAR Scaron
ENCODING 138
SWIDTH 500 0
DWIDTH 8 0
BBX 7 11 1 0
BITMAP
60
30
18
00
7C
C6
C6
FE
C0
C0
7C
ENDCHAR
STARTCHAR guilsinglleft
ENCODING 139
SWIDTH 500 0
DWIDTH 8 0
BBX 7 10 1 0
BITMAP
CC
CC
00
78
18
18
18
18
18
7E
ENDCHAR
STARTCHAR OE
ENCODING 140
SWIDTH 500 0
DWIDTH 8 0
BBX 6 11 2 0
BITMAP
20
70
D8
00
F0
30
30
30
30
30
FC
ENDCHAR
STARTCHAR NameMe.141
ENCODING 141
SWIDTH 500 0
DWIDTH 8 0
BBX 6 11 2 0
BITMAP
C0
60
30
00
F0
30
30
30
30
30
FC
ENDCHAR
STARTCHAR Zcaron
ENCODING 142
SWIDTH 500 0
DWIDTH 8 0
BBX 7 12 1 0
BITMAP
C6
C6
38
6C
C6
C6
C6
FE
C6
C6
C6
C6
ENDCHAR
STARTCHAR NameMe.143
ENCODING 143
SWIDTH 500 0
DWIDTH 8 0
BBX 7 12 1 0
BITMAP
38
44
7C
6C
C6
C6
C6
FE
C6
C6
C6
C6
ENDCHAR
STARTCHAR NameMe.144
ENCODING 144
SWIDTH 500 0
DWIDTH 8 0
BBX 7 12 1 0
BITMAP
1C
70
00
FE
C0
C0
C0
FC
C0
C0
C0
FE
ENDCHAR
STARTCHAR quoteleft
ENCODING 145
SWIDTH 500 0
DWIDTH 8 0
BBX 7 7 1 0
BITMAP
6C
B6
36
7E
D8
D8
6E
ENDCHAR
STARTCHAR quoteright
ENCODING 146
SWIDTH 500 0
DWIDTH 8 0
BBX 7 10 1 0
BITMAP
3E
58
D8
D8
DE
F8
D8
D8
D8
DE
ENDCHAR
STARTCHAR quotedblleft
ENCODING 147
SWIDTH 500 0
DWIDTH 8 0
BBX 7 11 1 0
BITMAP
10
38
6C
00
7C
C6
C6
C6
C6
C6
7C
ENDCHAR
STARTCHAR quotedblright
ENCODING 148
SWIDTH 500 0
DWIDTH 8 0
BBX 7 10 1 0
BITMAP
C6
C6
00
7C
C6
C6
C6
C6
C6
7C
ENDCHAR
STARTCHAR bullet
ENCODING 149
SWIDTH 500 0
DWIDTH 8 0
BBX 7 11 1 0
BITMAP
60
30
18
00
7C
C6
C6
C6
C6
C6
7C
ENDCHAR
STARTCHAR endash
ENCODING 150
SWIDTH 500 0
DWIDTH 8 0
BBX 7 11 1 0
BITMAP
10
38
6C
00
C6
C6
C6
C6
C6
CE
76
ENDCHAR
STARTCHAR emdash
ENCODING 151
SWIDTH 500 0
DWIDTH 8 0
BBX 7 11 1 0
BITMAP
60
30
18
00
C6
C6
C6
C6
C6
CE
76
ENDCHAR
STARTCHAR tilde
ENCODING 152
SWIDTH 500 0
DWIDTH 8 0
BBX 7 13 1 -2
BITMAP
C6
C6
00
C6
C6
C6
C6
C6
CE
76
06
06
7C
ENDCHAR
STARTCHAR trademark
ENCODING 153
SWIDTH 500 0
DWIDTH 8 0
BBX 7 12 1 0
BITMAP
C6
C6
00
7C
C6
C6
C6
C6
C6
C6
C6
7C
ENDCHAR
STARTCHAR scaron
ENCODING 154
SWIDTH 500 0
DWIDTH 8 0
BBX 7 12 1 0
BITMAP
C6
C6
00
C6
C6
C6
C6
C6
C6
C6
C6
7C
ENDCHAR
STARTCHAR guilsinglright
ENCODING 155
SWIDTH 500 0
DWIDTH 8 0
BBX 7 10 1 0
BITMAP
10
10
7C
C6
C0
C0
C6
7C
10
10
ENDCHAR
STARTCHAR oe
ENCODING 156
SWIDTH 500 0
DWIDTH 8 0
BBX 7 10 1 0
BITMAP
38
6C
60
60
F8
60
60
60
76
DC
ENDCHAR
STARTCHAR NameMe.157
ENCODING 157
SWIDTH 500 0
DWIDTH 8 0
BBX 6 10 1 0
BITMAP
CC
CC
CC
78
30
FC
30
FC
30
30
ENDCHAR
STARTCHAR zcaron
ENCODING 158
SWIDTH 500 0
DWIDTH 8 0
BBX 7 10 1 0
BITMAP
F8
CC
CC
F8
C4
CC
DE
CC
CC
C6
ENDCHAR
STARTCHAR Ydieresis
ENCODING 159
SWIDTH 500 0
DWIDTH 8 0
BBX 6 13 1 -2
BITMAP
18
34
30
30
30
FC
30
30
30
30
30
B0
60
ENDCHAR
STARTCHAR uni00A0
ENCODING 160
SWIDTH 500 0
DWIDTH 8 0
BBX 7 11 1 0
BITMAP
0C
18
30
00
7C
06
06
7E
C6
C6
7E
ENDCHAR
STARTCHAR exclamdown
ENCODING 161
SWIDTH 500 0
DWIDTH 8 0
BBX 6 11 2 0
BITMAP
18
30
60
00
F0
30
30
30
30
30
FC
ENDCHAR
STARTCHAR cent
ENCODING 162
SWIDTH 500 0
DWIDTH 8 0
BBX 7 11 1 0
BITMAP
0C
18
30
00
7C
C6
C6
C6
C6
C6
7C
ENDCHAR
STARTCHAR sterling
ENCODING 163
SWIDTH 500 0
DWIDTH 8 0
BBX 7 11 1 0
BITMAP
0C
18
30
00
C6
C6
C6
C6
C6
CE
76
ENDCHAR
STARTCHAR currency
ENCODING 164
SWIDTH 500 0
DWIDTH 8 0
BBX 7 11 1 0
BITMAP
76
DC
00
00
DC
E6
C6
C6
C6
C6
C6
ENDCHAR
STARTCHAR yen
ENCODING 165
SWIDTH 500 0
DWIDTH 8 0
BBX 7 12 1 0
BITMAP
76
DC
00
86
C6
E6
F6
DE
CE
C6
C6
C6
ENDCHAR
STARTCHAR brokenbar
ENCODING 166
SWIDTH 500 0
DWIDTH 8 0
BBX 6 7 1 4
BITMAP
78
0C
7C
CC
7C
00
FC
ENDCHAR
STARTCHAR section
ENCODING 167
SWIDTH 500 0
DWIDTH 8 0
BBX 6 7 1 4
BITMAP
78
CC
CC
CC
78
00
FC
ENDCHAR
STARTCHAR dieresis
ENCODING 168
SWIDTH 500 0
DWIDTH 8 0
BBX 7 11 1 -1
BITMAP
18
18
00
18
18
30
60
C0
C6
C6
7C
ENDCHAR
STARTCHAR copyright
ENCODING 169
SWIDTH 500 0
DWIDTH 8 0
BBX 6 5 1 1
BITMAP
FC
C0
C0
C0
C0
ENDCHAR
STARTCHAR ordfeminine
ENCODING 170
SWIDTH 500 0
DWIDTH 8 0
BBX 6 5 1 1
BITMAP
FC
0C
0C
0C
0C
ENDCHAR
STARTCHAR guillemotleft
ENCODING 171
SWIDTH 500 0
DWIDTH 8 0
BBX 7 13 1 -2
BITMAP
C0
C0
C4
CC
D8
30
60
DC
B6
06
0C
18
3E
ENDCHAR
STARTCHAR logicalnot
ENCODING 172
SWIDTH 500 0
DWIDTH 8 0
BBX 7 13 1 -2
BITMAP
C0
C0
C0
C4
CC
18
30
64
CC
9C
2C
7E
0C
ENDCHAR
STARTCHAR uni00AD
ENCODING 173
SWIDTH 500 0
DWIDTH 8 0
BBX 2 11 3 -1
BITMAP
C0
C0
00
C0
C0
C0
C0
C0
C0
C0
C0
ENDCHAR
STARTCHAR registered
ENCODING 174
SWIDTH 500 0
DWIDTH 8 0
BBX 7 7 1 1
BITMAP
12
36
6C
D8
6C
36
12
ENDCHAR
STARTCHAR macron
ENCODING 175
SWIDTH 500 0
DWIDTH 8 0
BBX 7 7 1 1
BITMAP
90
D8
6C
36
6C
D8
90
ENDCHAR
STARTCHAR degree
ENCODING 176
SWIDTH 500 0
DWIDTH 8 0
BBX 7 16 1 -3
BITMAP
22
88
22
88
22
88
22
88
22
88
22
88
22
88
22
88
ENDCHAR
STARTCHAR plusminus
ENCODING 177
SWIDTH 500 0
DWIDTH 8 0
BBX 8 16 0 -3
BITMAP
55
AA
55
AA
55
AA
55
AA
55
AA
55
AA
55
AA
55
AA
ENDCHAR
STARTCHAR uni00B2
ENCODING 178
SWIDTH 500 0
DWIDTH 8 0
BBX 8 16 0 -3
BITMAP
DD
77
DD
77
DD
77
DD
77
DD
77
DD
77
DD
77
DD
77
ENDCHAR
STARTCHAR uni00B3
ENCODING 179
SWIDTH 500 0
DWIDTH 8 0
BBX 1 16 4 -3
BITMAP
80
80
80
80
80
80
80
80
80
80
80
80
80
80
80
80
ENDCHAR
STARTCHAR acute
ENCODING 180
SWIDTH 500 0
DWIDTH 8 0
BBX 5 16 0 -3
BITMAP
08
08
08
08
08
08
08
F8
08
08
08
08
08
08
08
08
ENDCHAR
STARTCHAR mu
ENCODING 181
SWIDTH 500 0
DWIDTH 8 0
BBX 5 16 0 -3
BITMAP
08
08
08
08
08
08
F8
08
F8
08
08
08
08
08
08
08
ENDCHAR
STARTCHAR paragraph
ENCODING 182
SWIDTH 500 0
DWIDTH 8 0
BBX 6 16 0 -3
BITMAP
14
14
14
14
14
14
14
F4
14
14
14
14
14
14
14
14
ENDCHAR
STARTCHAR periodcentered
ENCODING 183
SWIDTH 500 0
DWIDTH 8 0
BBX 6 9 0 -3
BITMAP
FC
14
14
14
14
14
14
14
14
ENDCHAR
STARTCHAR cedilla
ENCODING 184
SWIDTH 500 0
DWIDTH 8 0
BBX 5 10 0 -3
BITMAP
F8
08
F8
08
08
08
08
08
08
08
ENDCHAR
STARTCHAR uni00B9
ENCODING 185
SWIDTH 500 0
DWIDTH 8 0
BBX 6 16 0 -3
BITMAP
14
14
14
14
14
14
F4
04
F4
14
14
14
14
14
14
14
ENDCHAR
STARTCHAR ordmasculine
ENCODING 186
SWIDTH 500 0
DWIDTH 8 0
BBX 3 16 3 -3
BITMAP
A0
A0
A0
A0
A0
A0
A0
A0
A0
A0
A0
A0
A0
A0
A0
A0
ENDCHAR
STARTCHAR guillemotright
ENCODING 187
SWIDTH 500 0
DWIDTH 8 0
BBX 6 10 0 -3
BITMAP
FC
04
F4
14
14
14
14
14
14
14
ENDCHAR
STARTCHAR onequarter
ENCODING 188
SWIDTH 500 0
DWIDTH 8 0
BBX 6 9 0 4
BITMAP
14
14
14
14
14
14
F4
04
FC
ENDCHAR
STARTCHAR onehalf
ENCODING 189
SWIDTH 500 0
DWIDTH 8 0
BBX 6 8 0 5
BITMAP
14
14
14
14
14
14
14
FC
ENDCHAR
STARTCHAR threequarters
ENCODING 190
SWIDTH 500 0
DWIDTH 8 0
BBX 5 9 0 4
BITMAP
08
08
08
08
08
08
F8
08
F8
ENDCHAR
STARTCHAR questiondown
ENCODING 191
SWIDTH 500 0
DWIDTH 8 0
BBX 5 9 0 -3
BITMAP
F8
08
08
08
08
08
08
08
08
ENDCHAR
STARTCHAR Agrave
ENCODING 192
SWIDTH 500 0
DWIDTH 8 0
BBX 4 8 4 5
BITMAP
80
80
80
80
80
80
80
F0
ENDCHAR
STARTCHAR Aacute
ENCODING 193
SWIDTH 500 0
DWIDTH 8 0
BBX 8 8 0 5
BITMAP
08
08
08
08
08
08
08
FF
ENDCHAR
STARTCHAR Acircumflex
ENCODING 194
SWIDTH 500 0
DWIDTH 8 0
BBX 8 9 0 -3
BITMAP
FF
08
08
08
08
08
08
08
08
ENDCHAR
STARTCHAR Atilde
ENCODING 195
SWIDTH 500 0
DWIDTH 8 0
BBX 4 16 4 -3
BITMAP
80
80
80
80
80
80
80
F0
80
80
80
80
80
80
80
80
ENDCHAR
STARTCHAR Adieresis
ENCODING 196
SWIDTH 500 0
DWIDTH 8 0
BBX 8 1 0 5
BITMAP
FF
ENDCHAR
STARTCHAR Aring
ENCODING 197
SWIDTH 500 0
DWIDTH 8 0
BBX 8 16 0 -3
BITMAP
08
08
08
08
08
08
08
FF
08
08
08
08
08
08
08
08
ENDCHAR
STARTCHAR AE
ENCODING 198
SWIDTH 500 0
DWIDTH 8 0
BBX 4 16 4 -3
BITMAP
80
80
80
80
80
80
F0
80
F0
80
80
80
80
80
80
80
ENDCHAR
STARTCHAR Ccedilla
ENCODING 199
SWIDTH 500 0
DWIDTH 8 0
BBX 5 16 3 -3
BITMAP
A0
A0
A0
A0
A0
A0
A0
B8
A0
A0
A0
A0
A0
A0
A0
A0
ENDCHAR
STARTCHAR Egrave
ENCODING 200
SWIDTH 500 0
DWIDTH 8 0
BBX 5 9 3 4
BITMAP
A0
A0
A0
A0
A0
A0
B8
80
F8
ENDCHAR
STARTCHAR Eacute
ENCODING 201
SWIDTH 500 0
DWIDTH 8 0
BBX 5 10 3 -3
BITMAP
F8
80
B8
A0
A0
A0
A0
A0
A0
A0
ENDCHAR
STARTCHAR Ecircumflex
ENCODING 202
SWIDTH 500 0
DWIDTH 8 0
BBX 8 9 0 4
BITMAP
14
14
14
14
14
14
F7
00
FF
ENDCHAR
STARTCHAR Edieresis
ENCODING 203
SWIDTH 500 0
DWIDTH 8 0
BBX 8 10 0 -3
BITMAP
FF
00
F7
14
14
14
14
14
14
14
ENDCHAR
STARTCHAR Igrave
ENCODING 204
SWIDTH 500 0
DWIDTH 8 0
BBX 5 16 3 -3
BITMAP
A0
A0
A0
A0
A0
A0
B8
80
B8
A0
A0
A0
A0
A0
A0
A0
ENDCHAR
STARTCHAR Iacute
ENCODING 205
SWIDTH 500 0
DWIDTH 8 0
BBX 8 3 0 4
BITMAP
FF
00
FF
ENDCHAR
STARTCHAR Icircumflex
ENCODING 206
SWIDTH 500 0
DWIDTH 8 0
BBX 8 16 0 -3
BITMAP
14
14
14
14
14
14
F7
00
F7
14
14
14
14
14
14
14
ENDCHAR
STARTCHAR Idieresis
ENCODING 207
SWIDTH 500 0
DWIDTH 8 0
BBX 8 9 0 4
BITMAP
08
08
08
08
08
08
FF
00
FF
ENDCHAR
STARTCHAR Eth
ENCODING 208
SWIDTH 500 0
DWIDTH 8 0
BBX 8 8 0 5
BITMAP
14
14
14
14
14
14
14
FF
ENDCHAR
STARTCHAR Ntilde
ENCODING 209
SWIDTH 500 0
DWIDTH 8 0
BBX 8 10 0 -3
BITMAP
FF
00
FF
08
08
08
08
08
08
08
ENDCHAR
STARTCHAR Ograve
ENCODING 210
SWIDTH 500 0
DWIDTH 8 0
BBX 8 9 0 -3
BITMAP
FF
14
14
14
14
14
14
14
14
ENDCHAR
STARTCHAR Oacute
ENCODING 211
SWIDTH 500 0
DWIDTH 8 0
BBX 5 8 3 5
BITMAP
A0
A0
A0
A0
A0
A0
A0
F8
ENDCHAR
STARTCHAR Ocircumflex
ENCODING 212
SWIDTH 500 0
DWIDTH 8 0
BBX 4 9 4 4
BITMAP
80
80
80
80
80
80
F0
80
F0
ENDCHAR
STARTCHAR Otilde
ENCODING 213
SWIDTH 500 0
DWIDTH 8 0
BBX 4 10 4 -3
BITMAP
F0
80
F0
80
80
80
80
80
80
80
ENDCHAR
STARTCHAR Odieresis
ENCODING 214
SWIDTH 500 0
DWIDTH 8 0
BBX 5 9 3 -3
BITMAP
F8
A0
A0
A0
A0
A0
A0
A0
A0
ENDCHAR
STARTCHAR multiply
ENCODING 215
SWIDTH 500 0
DWIDTH 8 0
BBX 8 16 0 -3
BITMAP
14
14
14
14
14
14
14
F7
14
14
14
14
14
14
14
14
ENDCHAR
STARTCHAR Oslash
ENCODING 216
SWIDTH 500 0
DWIDTH 8 0
BBX 8 16 0 -3
BITMAP
08
08
08
08
08
08
FF
00
FF
08
08
08
08
08
08
08
ENDCHAR
STARTCHAR Ugrave
ENCODING 217
SWIDTH 500 0
DWIDTH 8 0
BBX 5 8 0 5
BITMAP
08
08
08
08
08
08
08
F8
ENDCHAR
STARTCHAR Uacute
ENCODING 218
SWIDTH 500 0
DWIDTH 8 0
BBX 4 9 4 -3
BITMAP
F0
80
80
80
80
80
80
80
80
ENDCHAR
STARTCHAR Ucircumflex
ENCODING 219
SWIDTH 500 0
DWIDTH 8 0
BBX 8 16 0 -3
BITMAP
FF
FF
FF
FF
FF
FF
FF
FF
FF
FF
FF
FF
FF
FF
FF
FF
ENDCHAR
STARTCHAR Udieresis
ENCODING 220
SWIDTH 500 0
DWIDTH 8 0
BBX 8 8 0 -3
BITMAP
FF
FF
FF
FF
FF
FF
FF
FF
ENDCHAR
STARTCHAR Yacute
ENCODING 221
SWIDTH 500 0
DWIDTH 8 0
BBX 4 16 0 -3
BITMAP
F0
F0
F0
F0
F0
F0
F0
F0
F0
F0
F0
F0
F0
F0
F0
F0
ENDCHAR
STARTCHAR Thorn
ENCODING 222
SWIDTH 500 0
DWIDTH 8 0
BBX 4 16 4 -3
BITMAP
F0
F0
F0
F0
F0
F0
F0
F0
F0
F0
F0
F0
F0
F0
F0
F0
ENDCHAR
STARTCHAR germandbls
ENCODING 223
SWIDTH 500 0
DWIDTH 8 0
BBX 8 8 0 5
BITMAP
FF
FF
FF
FF
FF
FF
FF
FF
ENDCHAR
STARTCHAR agrave
ENCODING 224
SWIDTH 500 0
DWIDTH 8 0
BBX 7 7 1 1
BITMAP
76
CC
CC
CC
CC
CC
76
ENDCHAR
STARTCHAR aacute
ENCODING 225
SWIDTH 500 0
DWIDTH 8 0
BBX 7 11 1 0
BITMAP
78
CC
CC
CC
D8
CC
C6
C6
C6
DC
C0
ENDCHAR
STARTCHAR acircumflex
ENCODING 226
SWIDTH 500 0
DWIDTH 8 0
BBX 6 10 2 1
BITMAP
FC
C0
C0
C0
C0
C0
C0
C0
C0
C0
ENDCHAR
STARTCHAR atilde
ENCODING 227
SWIDTH 500 0
DWIDTH 8 0
BBX 7 7 1 1
BITMAP
FE
6C
6C
6C
6C
6C
66
ENDCHAR
STARTCHAR adieresis
ENCODING 228
SWIDTH 500 0
DWIDTH 8 0
BBX 7 10 1 1
BITMAP
FE
60
30
18
0C
18
30
60
C0
FE
ENDCHAR
STARTCHAR aring
ENCODING 229
SWIDTH 500 0
DWIDTH 8 0
BBX 7 7 1 1
BITMAP
7E
C8
CC
CC
CC
CC
78
ENDCHAR
STARTCHAR ae
ENCODING 230
SWIDTH 500 0
DWIDTH 8 0
BBX 7 10 1 -2
BITMAP
CC
CC
CC
CC
CC
CC
FA
C0
C0
C0
ENDCHAR
STARTCHAR ccedilla
ENCODING 231
SWIDTH 500 0
DWIDTH 8 0
BBX 6 7 1 1
BITMAP
FC
30
30
30
30
30
18
ENDCHAR
STARTCHAR egrave
ENCODING 232
SWIDTH 500 0
DWIDTH 8 0
BBX 7 10 1 1
BITMAP
7C
10
7C
D6
D6
D6
D6
7C
10
7C
ENDCHAR
STARTCHAR eacute
ENCODING 233
SWIDTH 500 0
DWIDTH 8 0
BBX 7 10 1 1
BITMAP
38
6C
C6
C6
FE
C6
C6
C6
6C
38
ENDCHAR
STARTCHAR ecircumflex
ENCODING 234
SWIDTH 500 0
DWIDTH 8 0
BBX 7 10 1 1
BITMAP
38
6C
C6
C6
C6
C6
C6
6C
28
EE
ENDCHAR
STARTCHAR edieresis
ENCODING 235
SWIDTH 500 0
DWIDTH 8 0
BBX 7 10 1 1
BITMAP
7C
60
30
18
7C
C6
C6
C6
C6
7C
ENDCHAR
STARTCHAR igrave
ENCODING 236
SWIDTH 500 0
DWIDTH 8 0
BBX 7 5 1 3
BITMAP
6C
D6
D6
D6
6C
ENDCHAR
STARTCHAR iacute
ENCODING 237
SWIDTH 500 0
DWIDTH 8 0
BBX 7 13 1 -2
BITMAP
10
10
10
7C
D6
D6
D6
D6
D6
7C
10
10
10
ENDCHAR
STARTCHAR icircumflex
ENCODING 238
SWIDTH 500 0
DWIDTH 8 0
BBX 7 7 1 1
BITMAP
7C
C6
C0
78
C0
C6
7C
ENDCHAR
STARTCHAR idieresis
ENCODING 239
SWIDTH 500 0
DWIDTH 8 0
BBX 7 10 1 1
BITMAP
7C
C6
C6
C6
C6
C6
C6
C6
C6
C6
ENDCHAR
STARTCHAR eth
ENCODING 240
SWIDTH 500 0
DWIDTH 8 0
BBX 5 5 2 3
BITMAP
F8
00
F8
00
F8
ENDCHAR
STARTCHAR ntilde
ENCODING 241
SWIDTH 500 0
DWIDTH 8 0
BBX 6 7 1 2
BITMAP
30
30
FC
30
30
00
FC
ENDCHAR
STARTCHAR ograve
ENCODING 242
SWIDTH 500 0
DWIDTH 8 0
BBX 5 9 2 1
BITMAP
C0
60
30
18
30
60
C0
00
F8
ENDCHAR
STARTCHAR oacute
ENCODING 243
SWIDTH 500 0
DWIDTH 8 0
BBX 5 9 2 1
BITMAP
18
30
60
C0
60
30
18
00
F8
ENDCHAR
STARTCHAR ocircumflex
ENCODING 244
SWIDTH 500 0
DWIDTH 8 0
BBX 4 14 3 -3
BITMAP
60
D0
D0
C0
C0
C0
C0
C0
C0
C0
C0
C0
C0
C0
ENDCHAR
STARTCHAR otilde
ENCODING 245
SWIDTH 500 0
DWIDTH 8 0
BBX 4 14 1 -1
BITMAP
30
30
30
30
30
30
30
30
30
30
30
B0
B0
60
ENDCHAR
STARTCHAR odieresis
ENCODING 246
SWIDTH 500 0
DWIDTH 8 0
BBX 6 7 1 2
BITMAP
30
30
00
FC
00
30
30
ENDCHAR
STARTCHAR divide
ENCODING 247
SWIDTH 500 0
DWIDTH 8 0
BBX 7 5 1 3
BITMAP
72
9C
00
72
9C
ENDCHAR
STARTCHAR oslash
ENCODING 248
SWIDTH 500 0
DWIDTH 8 0
BBX 6 5 1 7
BITMAP
78
CC
CC
CC
78
ENDCHAR
STARTCHAR ugrave
ENCODING 249
SWIDTH 500 0
DWIDTH 8 0
BBX 3 3 3 4
BITMAP
E0
E0
E0
ENDCHAR
STARTCHAR uacute
ENCODING 250
SWIDTH 500 0
DWIDTH 8 0
BBX 2 2 3 5
BITMAP
C0
C0
ENDCHAR
STARTCHAR ucircumflex
ENCODING 251
SWIDTH 500 0
DWIDTH 8 0
BBX 7 13 1 -1
BITMAP
0E
0C
0C
0C
0C
0C
0C
CC
6C
3C
1C
0C
04
ENDCHAR
STARTCHAR udieresis
ENCODING 252
SWIDTH 500 0
DWIDTH 8 0
BBX 6 6 1 6
BITMAP
D8
EC
CC
CC
CC
CC
ENDCHAR
STARTCHAR yacute
ENCODING 253
SWIDTH 500 0
DWIDTH 8 0
BBX 5 6 2 6
BITMAP
70
98
18
30
60
F8
ENDCHAR
STARTCHAR thorn
ENCODING 254
SWIDTH 500 0
DWIDTH 8 0
BBX 5 5 2 3
BITMAP
F8
F8
F8
F8
F8
ENDCHAR
STARTCHAR ydieresis
ENCODING 255
SWIDTH 500 0
DWIDTH 8 0
BBX 1 1 7 -3
BITMAP
00
ENDCHAR
ENDFONT
